# xmcd
#
# Track frame offsets:
#	150
#	16582
#	33560
#	51975
#	71155
#	91925
#	105087
#	118245
#	132075
#	147105
#	159285
#	175197
#	190487
#
# Disc length: 2729 seconds
#
# Revision: 0
# Processed by: cddbd v1.5.1PL0 Copyright (c) Steve Scherf et al.
# Submitted via: dBpowerAMP V4.0
#
DISCID=a80aa70d
DTITLE=Os Mateadores - Num tranco de vaneira
DYEAR=1900
DGENRE=Gaucho
TTITLE0=Num tranco de vaneira
TTITLE1=essa guitarra
TTITLE2=retemperado a gaitaco
TTITLE3=coracao sonhador
TTITLE4=sovando basto
TTITLE5=achego
TTITLE6=fogo de chao
TTITLE7=quando o amor se foi
TTITLE8=aguas da saudade
TTITLE9=dancador pacholento
TTITLE10=anda meu cavalo
TTITLE11=morena paixao
TTITLE12=romance de um peao posteiro
EXTD=
EXTT0=
EXTT1=
EXTT2=
EXTT3=
EXTT4=
EXTT5=
EXTT6=
EXTT7=
EXTT8=
EXTT9=
EXTT10=
EXTT11=
EXTT12=
PLAYORDER=
